{
    "accessors" : [
        {
            "bufferView" : 0, 
            "componentType" : 5123, 
            "count" : 21666, 
            "max" : [
                4022
            ], 
            "min" : [
                0
            ], 
            "type" : "SCALAR"
        }, 
        {
            "bufferView" : 1, 
            "componentType" : 5126, 
            "count" : 4023, 
            "max" : [
                5.808956146240234, 
                8.815942764282227, 
                -4.072681903839111
            ], 
            "min" : [
                -9.779067993164062, 
                -12.811817169189453, 
                -8.144916534423828
            ], 
            "type" : "VEC3"
        }, 
        {
            "bufferView" : 2, 
            "componentType" : 5126, 
            "count" : 4023, 
            "max" : [
                0.99981689453125, 
                0.8155461549758911, 
                0.999969482421875
            ], 
            "min" : [
                -0.999969482421875, 
                -0.9993896484375, 
                -0.999969482421875
            ], 
            "type" : "VEC3"
        }, 
        {
            "bufferView" : 3, 
            "componentType" : 5126, 
            "count" : 4023, 
            "max" : [
                0.9999999403953552, 
                0.9797644019126892, 
                0.9996383786201477, 
                1.0
            ], 
            "min" : [
                -0.9990190267562866, 
                -0.9980342984199524, 
                -0.9997405409812927, 
                1.0
            ], 
            "type" : "VEC4"
        }, 
        {
            "bufferView" : 4, 
            "componentType" : 5126, 
            "count" : 4023, 
            "max" : [
                1.0, 
                1.0
            ], 
            "min" : [
                0.0, 
                0.021776020526885986
            ], 
            "type" : "VEC2"
        }, 
        {
            "bufferView" : 5, 
            "componentType" : 5123, 
            "count" : 4023, 
            "max" : [
                14, 
                13, 
                0, 
                0
            ], 
            "min" : [
                0, 
                0, 
                0, 
                0
            ], 
            "type" : "VEC4"
        }, 
        {
            "bufferView" : 6, 
            "componentType" : 5126, 
            "count" : 4023, 
            "max" : [
                1.0, 
                1.0, 
                0.0, 
                0.0
            ], 
            "min" : [
                2.1405818188213743e-05, 
                0.0, 
                0.0, 
                0.0
            ], 
            "type" : "VEC4"
        }, 
        {
            "bufferView" : 7, 
            "componentType" : 5126, 
            "count" : 15, 
            "max" : [
                1.0, 
                0.34833812713623047, 
                0.45729944109916687, 
                0.0, 
                0.3516378700733185, 
                -0.6722294688224792, 
                0.4212622344493866, 
                0.0, 
                0.45666977763175964, 
                0.05128457397222519, 
                -0.707342267036438, 
                0.0, 
                4.222716331481934, 
                4.327431678771973, 
                -5.450870513916016, 
                1.0
            ], 
            "min" : [
                0.5339722633361816, 
                -0.73992919921875, 
                -0.5676312446594238, 
                0.0, 
                -0.7401469945907593, 
                -0.999774694442749, 
                -0.04532724991440773, 
                0.0, 
                -0.705776572227478, 
                -0.04468080401420593, 
                -1.0, 
                0.0, 
                -3.017700672149658, 
                -10.303300857543945, 
                -7.5769500732421875, 
                1.0
            ], 
            "type" : "MAT4"
        }, 
        {
            "bufferView" : 8, 
            "componentType" : 5126, 
            "count" : 15, 
            "max" : [
                1.0, 
                0.34833812713623047, 
                0.45729944109916687, 
                0.0, 
                0.3516378700733185, 
                -0.6722294688224792, 
                0.4212622344493866, 
                0.0, 
                0.45666977763175964, 
                0.05128457397222519, 
                -0.707342267036438, 
                0.0, 
                4.222716331481934, 
                4.327431678771973, 
                -5.450870513916016, 
                1.0
            ], 
            "min" : [
                0.5339722633361816, 
                -0.73992919921875, 
                -0.5676312446594238, 
                0.0, 
                -0.7401469945907593, 
                -0.999774694442749, 
                -0.04532724991440773, 
                0.0, 
                -0.705776572227478, 
                -0.04468080401420593, 
                -1.0, 
                0.0, 
                -3.017700672149658, 
                -10.303300857543945, 
                -7.5769500732421875, 
                1.0
            ], 
            "type" : "MAT4"
        }
    ], 
    "asset" : {
        "generator" : "Khronos Blender glTF 2.0 exporter", 
        "version" : "2.0"
    }, 
    "bufferViews" : [
        {
            "buffer" : 0, 
            "byteLength" : 43332, 
            "byteOffset" : 0, 
            "target" : 34963
        }, 
        {
            "buffer" : 0, 
            "byteLength" : 48276, 
            "byteOffset" : 43332, 
            "target" : 34962
        }, 
        {
            "buffer" : 0, 
            "byteLength" : 48276, 
            "byteOffset" : 91608, 
            "target" : 34962
        }, 
        {
            "buffer" : 0, 
            "byteLength" : 64368, 
            "byteOffset" : 139884, 
            "target" : 34962
        }, 
        {
            "buffer" : 0, 
            "byteLength" : 32184, 
            "byteOffset" : 204252, 
            "target" : 34962
        }, 
        {
            "buffer" : 0, 
            "byteLength" : 32184, 
            "byteOffset" : 236436, 
            "target" : 34962
        }, 
        {
            "buffer" : 0, 
            "byteLength" : 64368, 
            "byteOffset" : 268620, 
            "target" : 34962
        }, 
        {
            "buffer" : 0, 
            "byteLength" : 960, 
            "byteOffset" : 332988
        }, 
        {
            "buffer" : 0, 
            "byteLength" : 960, 
            "byteOffset" : 333948
        }
    ], 
    "buffers" : [
        {
            "byteLength" : 334908, 
            "uri" : "untitled.bin"
        }
    ], 
    "cameras" : [
        {
            "name" : "Camera", 
            "perspective" : {
                "aspectRatio" : 1.7777777777777777, 
                "yfov" : 0.5033799372418416, 
                "zfar" : 100.0, 
                "znear" : 0.10000000149011612
            }, 
            "type" : "perspective"
        }
    ], 
    "materials" : [
        {
            "name" : "initialShadingGroup", 
            "pbrMetallicRoughness" : {
                "baseColorFactor" : [
                    0.6400000190734865, 
                    0.6400000190734865, 
                    0.6400000190734865, 
                    1.0
                ], 
                "metallicFactor" : 0.0
            }
        }
    ], 
    "meshes" : [
        {
            "name" : "Hand", 
            "primitives" : [
                {
                    "attributes" : {
                        "JOINTS_0" : 5, 
                        "NORMAL" : 2, 
                        "POSITION" : 1, 
                        "TANGENT" : 3, 
                        "TEXCOORD_0" : 4, 
                        "WEIGHTS_0" : 6
                    }, 
                    "indices" : 0, 
                    "material" : 0
                }
            ]
        }
    ], 
    "nodes" : [
        {
            "children" : [
                3, 
                5
            ], 
            "name" : "Armature.001", 
            "translation" : [
                -5.367225646972656, 
                5.166820526123047, 
                1.1751512289047241
            ]
        }, 
        {
            "camera" : 0, 
            "name" : "Correction_Camera", 
            "rotation" : [
                -0.7071067690849304, 
                -0.0, 
                0.0, 
                0.7071067690849304
            ]
        }, 
        {
            "children" : [
                1
            ], 
            "name" : "Camera", 
            "rotation" : [
                0.483536034822464, 
                0.33687159419059753, 
                -0.20870360732078552, 
                0.7804827094078064
            ], 
            "translation" : [
                7.481131553649902, 
                5.34366512298584, 
                6.5076398849487305
            ]
        }, 
        {
            "mesh" : 0, 
            "name" : "Hand", 
            "rotation" : [
                0.7071068286895752, 
                1.053671283557378e-08, 
                -0.0, 
                0.7071067094802856
            ], 
            "skin" : 0, 
            "translation" : [
                5.367225646972656, 
                -5.166820526123047, 
                -1.1751512289047241
            ]
        }, 
        {
            "name" : "Lamp", 
            "rotation" : [
                0.16907575726509094, 
                0.7558802962303162, 
                -0.27217137813568115, 
                0.570947527885437
            ], 
            "scale" : [
                1.0, 
                1.0, 
                0.9999999403953552
            ], 
            "translation" : [
                4.076245307922363, 
                5.903861999511719, 
                -1.0054539442062378
            ]
        }, 
        {
            "children" : [
                6, 
                8, 
                11, 
                14, 
                17
            ], 
            "name" : "Armature.001_root", 
            "rotation" : [
                -0.6995621919631958, 
                -3.13215977598702e-08, 
                -3.065723376494134e-06, 
                0.7145717144012451
            ], 
            "scale" : [
                1.0, 
                1.0, 
                0.9999999403953552
            ], 
            "translation" : [
                5.20595645904541, 
                0.8510103225708008, 
                3.2810144424438477
            ]
        }, 
        {
            "children" : [
                7
            ], 
            "name" : "Armature.001_11", 
            "rotation" : [
                0.10066834837198257, 
                -0.36304962635040283, 
                0.31813740730285645, 
                0.869970977306366
            ], 
            "scale" : [
                0.9999998807907104, 
                0.9999999403953552, 
                0.9999999403953552
            ], 
            "translation" : [
                -5.223809719085693, 
                3.2664058208465576, 
                -0.40077605843544006
            ]
        }, 
        {
            "name" : "Armature.001_12", 
            "rotation" : [
                0.059207286685705185, 
                0.38005509972572327, 
                0.05953005701303482, 
                0.9211453795433044
            ], 
            "scale" : [
                0.9999999403953552, 
                1.0000001192092896, 
                0.9999999403953552
            ], 
            "translation" : [
                5.960464477539063e-08, 
                2.464419364929199, 
                0.0
            ]
        }, 
        {
            "children" : [
                9
            ], 
            "name" : "Armature.001_21", 
            "rotation" : [
                0.030503975227475166, 
                -0.11960561573505402, 
                0.14812223613262177, 
                0.9812358617782593
            ], 
            "translation" : [
                -3.3857412338256836, 
                7.938844203948975, 
                0.110911063849926
            ]
        }, 
        {
            "children" : [
                10
            ], 
            "name" : "Armature.001_22", 
            "rotation" : [
                -0.007168606389313936, 
                0.12036633491516113, 
                -0.02450726367533207, 
                0.992401123046875
            ], 
            "scale" : [
                1.0, 
                0.9999998807907104, 
                1.0
            ], 
            "translation" : [
                1.1920928955078125e-07, 
                3.2847416400909424, 
                4.470348358154297e-08
            ]
        }, 
        {
            "name" : "Armature.001_23", 
            "rotation" : [
                -0.0015321011887863278, 
                0.0004071699804626405, 
                -0.007682289462536573, 
                0.9999692440032959
            ], 
            "scale" : [
                0.9999998807907104, 
                0.9999999403953552, 
                0.9999998807907104
            ], 
            "translation" : [
                3.725290298461914e-09, 
                2.0364603996276855, 
                -5.7887518778443336e-08
            ]
        }, 
        {
            "children" : [
                12
            ], 
            "name" : "Armature.001_31", 
            "rotation" : [
                -0.035169586539268494, 
                0.23508460819721222, 
                -0.008826503530144691, 
                0.971298336982727
            ], 
            "scale" : [
                1.0, 
                0.9999999403953552, 
                1.0
            ], 
            "translation" : [
                -1.0811692476272583, 
                9.045706748962402, 
                0.37692806124687195
            ]
        }, 
        {
            "children" : [
                13
            ], 
            "name" : "Armature.001_32", 
            "rotation" : [
                0.03965165093541145, 
                -0.23526597023010254, 
                0.016515113413333893, 
                0.9709814190864563
            ], 
            "scale" : [
                0.9999999403953552, 
                1.0, 
                0.9999999403953552
            ], 
            "translation" : [
                -5.960464477539063e-08, 
                3.104004383087158, 
                2.980232238769531e-07
            ]
        }, 
        {
            "name" : "Armature.001_33", 
            "rotation" : [
                -0.0031224223785102367, 
                4.4899141357745975e-05, 
                0.009710448794066906, 
                0.9999479651451111
            ], 
            "scale" : [
                1.0, 
                1.0000001192092896, 
                1.0000001192092896
            ], 
            "translation" : [
                -4.854518920183182e-07, 
                2.4157233238220215, 
                -6.618211045861244e-08
            ]
        }, 
        {
            "children" : [
                15
            ], 
            "name" : "Armature.001_41", 
            "rotation" : [
                -0.029362324625253677, 
                0.0018593806307762861, 
                -0.030762609094381332, 
                0.9990936517715454
            ], 
            "scale" : [
                0.9999999403953552, 
                1.0, 
                0.9999999403953552
            ], 
            "translation" : [
                1.3342353105545044, 
                8.260087966918945, 
                0.36031708121299744
            ]
        }, 
        {
            "children" : [
                16
            ], 
            "name" : "Armature.001_42", 
            "rotation" : [
                0.01880398392677307, 
                -0.0017393595771864057, 
                0.006866116542369127, 
                0.9997981190681458
            ], 
            "scale" : [
                0.9999998211860657, 
                1.0000001192092896, 
                1.0
            ], 
            "translation" : [
                -2.9616057872772217e-07, 
                2.5275607109069824, 
                4.842877388000488e-08
            ]
        }, 
        {
            "name" : "Armature.001_43", 
            "rotation" : [
                7.416828928796804e-09, 
                3.5056227365437564e-10, 
                -0.0022907357197254896, 
                0.9999973773956299
            ], 
            "scale" : [
                0.9999999403953552, 
                0.9999999403953552, 
                1.0
            ], 
            "translation" : [
                9.71649427583543e-10, 
                2.5225095748901367, 
                1.4738152920301673e-09
            ]
        }, 
        {
            "children" : [
                18
            ], 
            "name" : "Armature.001_51", 
            "rotation" : [
                -0.027933483943343163, 
                0.045231837779283524, 
                -0.17855674028396606, 
                0.9824924468994141
            ], 
            "scale" : [
                1.0, 
                1.0, 
                0.9999999403953552
            ], 
            "translation" : [
                3.6991119384765625, 
                6.874509811401367, 
                0.1556122899055481
            ]
        }, 
        {
            "children" : [
                19
            ], 
            "name" : "Armature.001_52", 
            "rotation" : [
                0.023948846384882927, 
                -0.04420483857393265, 
                0.03845353424549103, 
                0.9979948401451111
            ], 
            "scale" : [
                1.0, 
                1.0000001192092896, 
                1.0000001192092896
            ], 
            "translation" : [
                7.152557373046875e-07, 
                2.650906562805176, 
                1.9371509552001953e-07
            ]
        }, 
        {
            "name" : "Armature.001_53", 
            "rotation" : [
                1.1370671515464892e-08, 
                1.6137970249019418e-07, 
                0.005895158275961876, 
                0.9999826550483704
            ], 
            "translation" : [
                -8.642756483823177e-07, 
                1.8472621440887451, 
                5.0724338507279754e-08
            ]
        }
    ], 
    "scene" : 0, 
    "scenes" : [
        {
            "name" : "Scene", 
            "nodes" : [
                0, 
                4, 
                2
            ]
        }
    ], 
    "skins" : [
        {
            "inverseBindMatrices" : 7, 
            "joints" : [
                5, 
                6, 
                7, 
                8, 
                9, 
                10, 
                11, 
                12, 
                13, 
                14, 
                15, 
                16, 
                17, 
                18, 
                19
            ], 
            "skeleton" : 0
        }, 
        {
            "inverseBindMatrices" : 8, 
            "joints" : [
                5, 
                6, 
                7, 
                8, 
                9, 
                10, 
                11, 
                12, 
                13, 
                14, 
                15, 
                16, 
                17, 
                18, 
                19
            ], 
            "skeleton" : 0
        }
    ]
}
